<svg width="27" height="34" viewBox="0 0 27 34" fill="none" xmlns="http://www.w3.org/2000/svg">
  <defs>
    <linearGradient id="minimalVGrad" x1="0%" y1="0%" x2="100%" y2="100%">
      <stop offset="0%" style="stop-color:#6C6DF8;stop-opacity:1" />
      <stop offset="100%" style="stop-color:#44C5B2;stop-opacity:1" />
    </linearGradient>
  </defs>
  
  <!-- Простой прямоугольник как в оригинале -->
  <rect x="1" y="1" width="25" height="32" rx="3" fill="url(#minimalVGrad)"/>
  
  <!-- Буква В (контурная, жирная) -->
  <path d="M7 8V26M7 8H16C17.1046 8 18 8.89543 18 10V12C18 12.5523 17.5523 13 17 13C17.5523 13 18 13.4477 18 14V16C18 17.1046 17.1046 18 16 18H7M7 18H17C18.1046 18 19 18.8954 19 20V22C19 23.1046 18.1046 24 17 24H7" 
        stroke="white" stroke-width="2" stroke-linecap="round" stroke-linejoin="round" fill="none"/>
</svg>